# Made in Blockbench 5.0.5
mtllib materials.mtl

o MergedLeafs
v -0.0759375 1.215 -0.4209374999999998
v 0.0009375 1.90125 -0.012187499999999907
v 0.268125 1.201875 -0.3365624999999998
v 0.43031250000000004 1.250625 -0.06374999999999975
v -0.0703125 1.22146875 0.24496875000000018
v -0.24656250000000002 1.23 0.380625
v -0.22303125000000001 1.20890625 0.1257187500000001
v -0.3853125 1.1746875 -0.2484374999999998
v -0.12768749999999998 1.1874375 -0.23296874999999984
v -0.21196874999999998 1.1878125 -0.12703124999999982
v 0.0740625 1.19578125 -0.26099999999999984
v 0.216375 1.20778125 -0.13134374999999987
v -0.5053125 0.8146875 0.2925000000000002
v 0.0009375 0.80221875 0.3269062500000002
v 0.24 0.8015625 0.5503125000000002
v 0.10678125 0.7981875 0.2809687500000002
v 0.17765625000000002 1.21725 0.14578125000000008
v 0.3590625 1.2309375 0.2728125000000001
v 0.10021875 1.22259375 0.2247187500000002
v -0.22940625 0.805875 0.23137500000000022
v -0.33431249999999996 0.80165625 -0.04124999999999979
v -0.28125 0.7884375 -0.5034374999999998
v -0.16031250000000002 0.8428125 0.5625000000000002
v -0.24946875000000002 0.79378125 -0.2601562499999998
v -0.17634375 0.7910625 -0.2912812499999998
v -0.579375 0.7884375 -0.13031249999999983
v 0.25021875000000005 1.2174375 0.06600000000000017
v 0.5549999999999999 0.8456250000000001 0.1546875000000002
v 0.09562499999999999 1.2609375 0.4359375000000003
v -0.43968749999999995 1.24125 0.06937500000000019
v -0.25959374999999996 1.1925 -0.0620624999999998
v 0.504375 0.7884375 -0.2981249999999998
v 0.15656250000000002 0.8278125000000001 -0.5484374999999998
v 0.0009375 0.3609375 0.6600000000000001
v -0.47625 0.3684375 0.4621875000000002
v 0.49781250000000005 0.34875 0.43968750000000023
v -0.4565625 0.44625000000000004 -0.4884374999999998
v -0.6749999999999999 0.38249999999999995 -0.09937499999999988
v 0.4771875 0.3571875 -0.4603124999999998
v -0.0375 0.421875 -0.6749999999999998
v 0.6749999999999999 0.421875 -0.014999999999999902
v 0.23634375 0.79059375 -0.21946874999999982
v -0.0196875 0.7895625 -0.3542812499999998
v 0.3590625 0.7932187500000001 -0.0004687499999997957
v 0.24056249999999998 0.796875 0.22021875000000013
vt 0 1
vt 0 1
vt 0 1
vt 0 1
vt 0 1
vt 0 1
vt 0 1
vt 0 1
vt 0 1
vt 0 1
vt 0 1
vt 0 1
vt 0 1
vt 0 1
vt 0 1
vt 0 1
vt 0 1
vt 0 1
vt 0 1
vt 0 1
vt 0 1
vt 0 1
vt 0 1
vt 0 1
vt 0 1
vt 0 1
vt 0 1
vt 0 1
vt 0 1
vt 0 1
vt 0 1
vt 0 1
vt 0 1
vt 0 1
vt 0 1
vt 0 1
vt 0 1
vt 0 1
vt 0 1
vt 0 1
vt 0 1
vt 0 1
vt 0 1
vt 0 1
vt 0 1
vt 0 1
vt 0 1
vt 0 1
vt 0 1
vt 0 1
vt 0 1
vt 0 1
vt 0 1
vt 0 1
vt 0 1
vt 0 1
vt 0 1
vt 0 1
vt 0 1
vt 0 1
vt 0 1
vt 0 1
vt 0 1
vt 0 1
vt 0 1
vt 0 1
vt 0 1
vt 0 1
vt 0 1
vt 0 1
vt 0 1
vt 0 1
vt 0 1
vt 0 1
vt 0 1
vt 0 1
vt 0 1
vt 0 1
vt 0 1
vt 0 1
vt 0 1
vt 0 1
vt 0 1
vt 0 1
vt 0 1
vt 0 1
vt 0 1
vt 0 1
vt 0 1
vt 0 1
vt 0 1
vt 0 1
vt 0 1
vt 0 1
vt 0 1
vt 0 1
vt 0 1
vt 0 1
vt 0 1
vt 0 1
vt 0 1
vt 0 1
vt 0 1
vt 0 1
vt 0 1
vt 0 1
vt 0 1
vt 0 1
vt 0 1
vt 0 1
vt 0 1
vt 0 1
vt 0 1
vt 0 1
vt 0 1
vt 0 1
vt 0 1
vt 0 1
vt 0 1
vt 0 1
vt 0 1
vt 0 1
vt 0 1
vt 0 1
vt 0 1
vt 0 1
vt 0 1
vt 0 1
vt 0 1
vt 0 1
vt 0 1
vt 0 1
vt 0 1
vt 0 1
vt 0 1
vt 0 1
vt 0 1
vt 0 1
vt 0 1
vt 0 1
vt 0 1
vt 0 1
vt 0 1
vt 0 1
vt 0 1
vt 0 1
vt 0 1
vt 0 1
vt 0 1
vt 0 1
vt 0 1
vt 0 1
vt 0 1
vt 0 1
vt 0 1
vt 0 1
vt 0 1
vt 0 1
vt 0 1
vt 0 1
vt 0 1
vt 0 1
vt 0 1
vt 0 1
vt 0 1
vt 0 1
vt 0 1
vt 0 1
vt 0 1
vt 0 1
vt 0 1
vt 0 1
vt 0 1
vt 0 1
vt 0 1
vt 0 1
vt 0 1
vt 0 1
vt 0 1
vt 0 1
vt 0 1
vt 0 1
vt 0 1
vt 0 1
vt 0 1
vt 0 1
vt 0 1
vt 0 1
vt 0 1
vt 0 1
vt 0 1
vt 0 1
vt 0 1
vt 0 1
vt 0 1
vt 0 1
vt 0 1
vt 0 1
vt 0 1
vt 0 1
vt 0 1
vt 0 1
vt 0 1
vt 0 1
vt 0 1
vt 0 1
vt 0 1
vt 0 1
vt 0 1
vt 0 1
vt 0 1
vt 0 1
vt 0 1
vt 0 1
vt 0 1
vt 0 1
vt 0 1
vt 0 1
vt 0 1
vt 0 1
vt 0 1
vt 0 1
vt 0 1
vt 0 1
vt 0 1
vt 0 1
vt 0 1
vt 0 1
vt 0 1
vt 0 1
vt 0 1
vt 0 1
vt 0 1
vt 0 1
vt 0 1
vt 0 1
vt 0 1
vt 0 1
vt 0 1
vt 0 1
vt 0 1
vt 0 1
vt 0 1
vt 0 1
vt 0 1
vt 0 1
vt 0 1
vt 0 1
vt 0 1
vt 0 1
vt 0 1
vt 0 1
vt 0 1
vt 0 1
vt 0 1
vt 0 1
vt 0 1
vt 0 1
vn 0.22620607372679363 0.4796383285878523 -0.8478076939722594
vn 0.7007175704954797 0.5025644371189539 -0.5063831286113524
vn 0.01639657747319068 -0.9963341086265192 0.08396127818563356
vn 0.04694014638861625 -0.9980609514203499 0.04087737646818353
vn 0.04715461549926307 -0.998061534823958 0.04061545200982302
vn -0.026328497805073018 -0.9993347036433575 0.025238072378276546
vn -0.02685990049312468 -0.9993060366213642 0.025806799832613803
vn 0.016565529286026927 -0.996353310778493 0.08369984074184343
vn -0.026328298099629818 -0.9993347838444633 0.025235104868357332
vn -0.026254576358056402 -0.9993282889562792 0.025566933957255022
vn -0.026254467149729933 -0.9993282903924506 0.025566989967259313
vn -0.5145706285458587 0.6193356311214161 0.5929927860112274
vn -0.6329167342355022 0.5863246519673997 -0.5056083563589256
vn -0.027014449758425527 -0.9993102764851904 0.0254792232091568
vn -0.026346537273173938 -0.9993303185040693 0.02539241013115133
vn -0.6328571735764873 0.5863532870419677 -0.5056497015008115
vn 0.8242459750272977 0.5276799674404987 0.2053592574326605
vn -0.5141125342046917 0.619581594268352 0.5931331639838704
vn 0.5864584165903505 0.6083005620991984 0.5348242251059111
vn 0.48444380983621527 0.5485629662261433 0.6814637680732175
vn -0.29306504566442554 -0.9446152285905816 0.1476988453728455
vn 0.01302417424362355 -0.978604647108988 -0.20533707785484087
vn 0.2822433952924009 -0.9593359490581492 0.00363354627298422
vn 0.04679214973674631 -0.9981162161345133 0.03968014380436917
vn 0.046971526494627845 -0.9980801045247293 0.04037054186743036
vn 0.016487048546015744 -0.9963319270239026 0.08396944934366608
vn 0.017035883762514196 -0.9963426450164597 0.08373238552695962
vn 0.01657957514460742 -0.9963245730771556 0.08403846006828015
vn -0.18157385405204973 0.5456865709576224 0.8180813540236674
vn -0.8195195219534099 0.51642854486552 -0.24837333026179836
vn 0.04700943883479376 -0.9980767112577519 0.04041028464819623
vn 0.04746995441922032 -0.9980433684541384 0.04069444817360456
vn 0.046545760928653576 -0.9980885012204801 0.040655084196546905
vn -0.7109894296674116 0.5315584361786898 0.46036904742659956
vn -0.47244945231829183 0.48948320170060616 -0.7329377260429906
vn 0.04650423176747529 -0.966392687603877 0.25282905247117565
vn 0.5120788329374601 0.597217025477954 -0.6173387184817374
vn 0.5119915851515746 0.5971383849501531 -0.617487138289617
vn 0.5865010334603071 0.6083415960459315 0.534730811035123
vn 0.01650223178535327 -0.9963260824831532 0.08403578826830492
vn 0.01656930401500064 -0.9963124294528315 0.08418432800857563
vn 0.5868464937322292 0.6081911094586675 0.5345229341848896
vn 0.781707431017631 0.601856892128306 -0.1634067736951939
vn 0.7817315594493064 0.6017972999428729 -0.16351079090513804
vn 0.2521078815898192 -0.9631756557834433 0.09345732794397485
vn 0.06351998645569061 -0.9966892347130347 0.050752149982184955
vn 0.08773486473543375 0.6274484947151194 0.7736995411589604
vn -0.7883623416973271 0.6069615287201823 0.10041175651867776
vn 0.0882245099964543 0.6276506188657367 0.7734798875687353
vn -0.6326734358610684 0.5861877217630319 -0.5060714163139597
vn -0.01996947172585144 -0.9997478657991985 0.010267669109312068
vn -0.022033195548595324 -0.9963875421662777 -0.08201465789578069
vn -0.13494216507233034 0.5909968072311476 -0.7953071016457616
vn -0.1348974973748081 0.5910222042757869 -0.7952958061344242
vn 0.1494815900502091 -0.985715575713764 -0.07758903293213813
vn -0.0933389902286386 -0.9709322090547848 0.2204052592909117
vn -0.09234305426127652 -0.9926890060678568 -0.07772578440716732
vn -0.7883335083940908 0.6069905535862901 0.10046266669800012
vn 0.34452822773128255 -0.938627495276986 -0.01669507132039698
vn 0.3708352760813429 0.5999904090057551 -0.708867199914611
vn 0.37101781465672284 0.6001447134446984 -0.7086410262832167
vn 0.6920783694734345 0.6041191461694049 -0.3950539048516564
vn 0.6919679998314209 0.6041857349151869 -0.39514539720753206
vn -0.0947343878728423 -0.9954768240679727 -0.007161598836884587
vn -0.7190900083502592 0.626293242307025 -0.30110850956321117
vn -0.306019265637861 0.573603410236724 0.7598232273517734
vn -0.30597803162746445 0.5735708857122415 0.7598643847586605
vn -0.2812684797688941 0.6382953252373785 -0.7165662007578953
vn -0.7628370760531796 0.5806098448717333 0.28455544879101774
vn -0.7628598584594385 0.5805910045859477 0.28453281312552603
vn 0.06254284433632737 -0.968924515046058 -0.23931919430978235
vn -0.7190849310644066 0.626239832381151 -0.3012316953033423
vn -0.28172180008946196 0.6384719071869385 -0.7162307247580396
vn -0.28192026209073295 0.6383910327237639 -0.7162247239243972
vn 0.7137035954931529 0.5926027880682356 0.37342885982995494
vn 0.713715540392198 0.5925954463667331 0.373417680818792
vn 0.34647302779034667 0.5651492312680408 0.7487074110832164
vn 0.3456663344514752 0.5652549103087265 0.7490004483301426
vn 0.345885792019652 0.5653774096722148 0.7488066529560716
vn -0.0036382626457163196 -0.9998964685476979 0.013921753868083449
vn -0.003723867385944132 -0.9998847077267475 0.014720871777473903
vn -0.00388751762660654 -0.9998921366059287 0.014163416266350355
vn -0.003359899638222264 -0.9998903674098684 0.014420965133435885
vn -0.004421770817432516 -0.9998895198468453 0.014191407375017822
vn -0.0033645925384363706 -0.9998936096857265 0.014193266949462035
vn -0.003835960707165797 -0.9998908431608962 0.014268397543006404
usemtl m_4cee9cf9-d4a9-6fee-78d0-7ce8e3275e43
f 1/1/1 2/2/1 3/3/1
f 2/4/2 4/5/2 3/6/2
f 5/7/3 6/8/3 7/9/3
f 8/10/4 9/11/4 10/12/4
f 11/13/5 3/14/5 12/15/5
f 13/16/6 14/17/6 15/18/6
f 15/19/7 14/20/7 16/21/7
f 17/22/8 18/23/8 19/24/8
f 14/25/9 13/26/9 20/27/9
f 20/28/10 13/29/10 21/30/10
f 22/31/11 21/32/11 13/33/11
f 7/34/12 13/35/12 23/36/12
f 9/37/13 22/38/13 10/39/13
f 21/40/14 22/41/14 24/42/14
f 24/43/15 22/44/15 25/45/15
f 22/46/16 26/47/16 10/48/16
f 2/49/17 18/50/17 4/51/17
f 5/52/18 7/53/18 23/54/18
f 27/55/19 17/56/19 28/57/19
f 2/58/20 29/59/20 18/60/20
f 30/61/21 8/62/21 6/63/21
f 3/64/22 8/65/22 1/66/22
f 18/67/23 3/68/23 4/69/23
f 11/70/24 9/71/24 3/72/24
f 8/73/25 3/74/25 9/75/25
f 6/76/26 8/77/26 7/78/26
f 31/79/27 7/80/27 8/81/27
f 10/82/28 31/83/28 8/84/28
f 2/85/29 6/86/29 29/87/29
f 30/88/30 2/89/30 8/90/30
f 17/91/31 27/92/31 18/93/31
f 12/94/32 3/95/32 27/96/32
f 18/97/33 27/98/33 3/99/33
f 2/100/34 30/101/34 6/102/34
f 2/103/35 1/104/35 8/105/35
f 6/106/36 18/107/36 29/108/36
f 12/109/37 32/110/37 11/111/37
f 33/112/38 11/113/38 32/114/38
f 28/115/39 17/116/39 15/117/39
f 18/118/40 6/119/40 19/120/40
f 5/121/41 19/122/41 6/123/41
f 15/124/42 17/125/42 19/126/42
f 32/127/43 12/128/43 28/129/43
f 12/130/44 27/131/44 28/132/44
f 15/133/45 32/134/45 28/135/45
f 22/136/46 13/137/46 26/138/46
f 19/139/47 5/140/47 15/141/47
f 26/142/48 13/143/48 31/144/48
f 23/145/49 15/146/49 5/147/49
f 31/148/50 10/149/50 26/150/50
f 34/151/51 35/152/51 36/153/51
f 37/154/52 36/155/52 35/156/52
f 11/157/53 33/158/53 9/159/53
f 22/160/54 9/161/54 33/162/54
f 38/163/55 37/164/55 35/165/55
f 13/166/56 15/167/56 23/168/56
f 39/169/57 37/170/57 40/171/57
f 7/172/58 31/173/58 13/174/58
f 36/175/59 39/176/59 41/177/59
f 42/178/60 39/179/60 43/180/60
f 40/181/61 43/182/61 39/183/61
f 42/184/62 44/185/62 39/186/62
f 41/187/63 39/188/63 44/189/63
f 36/190/64 37/191/64 39/192/64
f 24/193/65 37/194/65 38/195/65
f 35/196/66 14/197/66 20/198/66
f 14/199/67 35/200/67 34/201/67
f 24/202/68 25/203/68 37/204/68
f 20/205/69 21/206/69 35/207/69
f 38/208/70 35/209/70 21/210/70
f 22/211/71 33/212/71 32/213/71
f 24/214/72 38/215/72 21/216/72
f 40/217/73 37/218/73 25/219/73
f 40/220/74 25/221/74 43/222/74
f 41/223/75 44/224/75 36/225/75
f 45/226/76 36/227/76 44/228/76
f 14/229/77 34/230/77 16/231/77
f 45/232/78 16/233/78 36/234/78
f 36/235/79 16/236/79 34/237/79
f 22/238/80 32/239/80 43/240/80
f 42/241/81 43/242/81 32/243/81
f 42/244/82 32/245/82 44/246/82
f 15/247/83 44/248/83 32/249/83
f 44/250/84 15/251/84 45/252/84
f 16/253/85 45/254/85 15/255/85
f 25/256/86 22/257/86 43/258/86