# Made in Blockbench 5.0.5
mtllib materials.mtl

o tree_base
v 0 -0.005293749999999986 -0.142975
v -0.03749999999999998 0.36509250000000004 -0.11797499999999997
v 0.08006999999999997 0.36509250000000004 -0.0964875
v 0.12382 -0.005293749999999986 -0.0714875
v 0.10506999999999998 0.36509250000000004 -0.034762500000000016
v 0.12382 -0.005293749999999986 0.0714875
v 0.08125000000000002 0.36509250000000004 0.08047499999999994
v 0 -0.005293749999999986 0.142975
v -0.04881999999999996 0.36509250000000004 0.07148749999999998
v -0.12382 -0.005293749999999986 0.0714875
v -0.09256999999999997 0.36509250000000004 -0.00898749999999999
v -0.12382 -0.005293749999999986 -0.0714875
vt 4.75 -27.25
vt 4.25 -27.25
vt 4.25 -27.75
vt 5.75 -27.25
vt 5.25 -27.25
vt 5.25 -27.75
vt 6.75 -27.25
vt 6.25 -27.25
vt 6.25 -27.75
vt 7.75 -27.25
vt 7.25 -27.25
vt 7.25 -27.75
vt 8.75 -27.25
vt 8.25 -27.25
vt 8.25 -27.75
vt 9.75 -27.25
vt 9.25 -27.25
vt 9.25 -27.75
vt 10.75 -27.25
vt 10.25 -27.25
vt 10.25 -27.75
vt 11.75 -27.25
vt 11.25 -27.25
vt 11.25 -27.75
vt 16.75 -27.25
vt 16.25 -27.25
vt 16.25 -27.75
vt 17.75 -27.25
vt 17.25 -27.25
vt 17.25 -27.75
vt 18.75 -27.25
vt 18.25 -27.25
vt 18.25 -27.75
vt 19.75 -27.25
vt 19.25 -27.25
vt 19.25 -27.75
vn 0.1791455424575562 0.08429866692628911 -0.9802043712267553
vn 0.4999998540731918 0.0006057506482855836 -0.8660252761859432
vn 0.9235990993083002 0.08384626955429235 -0.37407820952138543
vn 0.9987211220475761 0.05055808912558732 0
vn 0.9736731843358922 0.10702456670800706 0.20126170084287612
vn 0.499668075963862 0.03642854601238538 0.8654506195606979
vn -0.06780143747130753 0.18045117585236323 0.9812442806000573
vn -0.49745681080200327 0.10073068535927097 0.8616205953978534
vn -0.8649810619919268 0.17515115544757545 0.47024444190303594
vn -0.9964596254255556 0.08407267627928584 0
vn -0.882474270357487 0.14969848700766913 -0.4459030445563649
vn -0.49998461385959253 0.007831146442967894 -0.8659988793578562
usemtl m_5687ae9e-3ad3-b3dd-9421-10c42633aae9
f 1/1/1 2/2/1 3/3/1
f 1/4/2 3/5/2 4/6/2
f 4/7/3 3/8/3 5/9/3
f 4/10/4 5/11/4 6/12/4
f 6/13/5 5/14/5 7/15/5
f 6/16/6 7/17/6 8/18/6
f 8/19/7 7/20/7 9/21/7
f 8/22/8 9/23/8 10/24/8
f 10/25/9 9/26/9 11/27/9
f 10/28/10 11/29/10 12/30/10
f 12/31/11 11/32/11 2/33/11
f 12/34/12 2/35/12 1/36/12