# Made in Blockbench 5.0.5
mtllib materials.mtl

o bow1
v 0.03086344323183987 0.37344375 0.026565117885702094
v -0.013258252147247712 0.29375000000000007 -0.0044194173824158856
v 0.06629126073623885 0.40625 0.13700193885489356
v 0.12816310409006176 0.40625 0.07513009550107067
vt 8 1
vt 0 1
vt 0 -7
vt 0 -3.1231
vt 8 -3.1231
vt 4 1
vt 0 -3.1231
vt 8 -3.1231
vt 4 1
vt 0 -3.1231
vt 8 -3.1231
vt 4 1
vn -0.41316583392439976 0.8115343414514944 -0.4131658339243998
vn 0.8886206879412616 -0.4309120738079131 -0.1570606812966345
vn -0.4090317089640592 -0.12498324870339662 0.9039204879885654
vn 0.21432842884334585 -0.9529567929235229 0.21432842884334588
usemtl m_606e62bb-952e-58ab-bd9f-e5b00ded185d
f 2/1/1 3/2/1 4/3/1
f 3/4/2 2/5/2 1/6/2
f 2/7/3 4/8/3 1/9/3
f 4/10/4 3/11/4 1/12/4
o bow2
v -0.02876245220823928 0.37539500000000003 -0.0297762665557655
v 0 0.29375000000000007 0.008838834764831827
v -0.1414213562373095 0.40625 -0.07071067811865474
v -0.0795495128834866 0.40625 -0.13258252147247765
vt 0 1
vt 8 1
vt 0 -7
vt 8 -3.1231
vt 0 -3.1231
vt 4 1
vt 8 -3.1231
vt 0 -3.1231
vt 4 1
vt 8 -3.1231
vt 0 -3.1231
vt 4 1
vn 0.4131658339243998 0.8115343414514944 0.41316583392439965
vn 0.2349901251477512 -0.3466972840761602 -0.9080642236633147
vn -0.9039201735878071 -0.12498146961537554 0.40903294736948764
vn -0.1932405699155334 -0.9619335550220918 -0.19324056991553332
usemtl m_606e62bb-952e-58ab-bd9f-e5b00ded185d
f 7/13/5 6/14/5 8/15/5
f 6/16/6 7/17/6 5/18/6
f 8/19/7 6/20/7 5/21/7
f 7/22/8 8/23/8 5/24/8
o cube
v -0.0625 0.3125 -0.0625
v -0.06875 -0.0625 -0.0625
v -0.1878280828594378 0.3124835958570281 -0.05625863856667182
v -0.18125779788201346 0.30656211010589934 -0.18125
v -0.20026659924554283 -0.062493551762481975 -0.06315616797900264
v 0.0625 0.3125 0.0625
v 0.06218788989410067 -0.0625 0.05625779788201346
v -0.06691941738241593 0.3125 0.05808058261758409
v -0.0625 -0.06250062499999687 0.056250000031250025
v 0.0625 0.31249875000000626 -0.050000000062499994
v 0.0625 0.3125 -0.1875
v 0.05625 -0.0625 -0.0625
v 0.0625 -0.0625 -0.1875
v -0.0625 0.3125 -0.1875
v -0.0625 -0.0625 -0.1875
v 0.05625 0.3125 0.1875
v 0.0625 -0.0625 0.19374999999999998
v -0.0625 0.3123958477979125 0.18125086787475247
v -0.0625 -0.0625 0.1875
v 0.18125 0.31250779788201344 0.06281211010589932
v 0.1875 0.3125 -0.0625
v 0.187811334676468 -0.0625 0.05625775915882536
v 0.18125775915882536 -0.0625 -0.06281133467646799
v 0.17561884221436042 0.31816217534682717 0.18193347610027705
v 0.18128069775081973 -0.0625 0.1868813082081187
v 0.1875 0.3 -0.1875
v 0.1812284483078949 -0.0625 -0.1750000185790311
v -0.19343788989410068 0.30000000000000004 0.18125779788201346
v -0.1875 0.3125 0.0625
v -0.1812583741120285 -0.05 0.18782342893284903
v -0.1875 -0.0625 0.0625
v -0.18749970746549116 -0.056250000006846115 -0.1875
vt 1 0
vt 1 1
vt 0 1
vt 0 0
vt 1 0
vt 1 1
vt 0 1
vt 0 0
vt 1 0
vt 1 1
vt 0 1
vt 0 0
vt 1 0
vt 1 1
vt 0 1
vt 0 0
vt 1 0
vt 1 1
vt 0 1
vt 0 0
vt 1 0
vt 1 1
vt 0 1
vt 0 0
vt 1 0
vt 1 1
vt 0 1
vt 0 0
vt 1 0
vt 1 1
vt 0 1
vt 0 0
vt 1 0
vt 1 1
vt 0 1
vt 0 0
vt 1 0
vt 1 1
vt 0 1
vt 0 0
vt 1 0
vt 1 1
vt 0 1
vt 0 0
vt 1 0
vt 1 1
vt 0 1
vt 0 0
vt 1 0
vt 1 1
vt 0 1
vt 0 0
vt 1 0
vt 1 1
vt 0 1
vt 0 0
vt 1 0
vt 1 1
vt 0 1
vt 0 0
vt 1 0
vt 1 1
vt 0 1
vt 0 0
vt 1 0
vt 1 1
vt 0 1
vt 0 0
vt 1 0
vt 1 1
vt 0 1
vt 0 0
vt 1 0
vt 1 1
vt 0 1
vt 0 0
vt 1 0
vt 1 1
vt 0 1
vt 0 0
vt 1 0
vt 1 1
vt 0 1
vt 0 0
vt 1 0
vt 1 1
vt 0 1
vt 0 0
vt 1 0
vt 1 1
vt 0 1
vt 0 0
vt 1 0
vt 1 1
vt 0 1
vt 0 0
vt 1 0
vt 1 1
vt 0 1
vt 0 0
vt 1 0
vt 1 1
vt 0 1
vt 0 0
vt 1 0
vt 1 1
vt 0 1
vt 0 0
vt 1 0
vt 1 1
vt 0 1
vt 0 0
vt 1 0
vt 1 1
vt 0 1
vt 0 0
vt 1 0
vt 1 1
vt 0 1
vt 0 0
vn -0.9979545761275602 0.0340982112196135 -0.05407380121356552
vn -0.049937616943892094 0.9987523388778448 0
vn -0.00004901760962455507 -0.9999999987956336 -0.0000024508804812277557
vn 0.000011111111047881454 0.9999999998765432 -0.000011111111047881454
vn 0.000005012531303073773 -0.9999999999874059 -2.506265651536885e-7
vn 0 0.9999999999586777 0.000009090909049105147
vn 0 -1 0
vn 0 0 -1
vn 0 1 0
vn 0 -1 0
vn -0.05255881296307724 0.01576557601620441 0.9984933739353454
vn 0.9986197954251198 -0.01666435233398442 0.049807665538356485
vn -0.000016304085371265655 0.9999999978800137 -0.00006304085474102514
vn 0 -1 0
vn 0.9987828275732857 0.016663839554993728 0.04642391405297017
vn 0.00005901811117062583 0.9988754551679554 -0.04741119677747477
vn 0 -1 0
vn 0.04593115050244575 0.013666194147015087 0.9988511223155622
vn 0.9998499148890095 -0.01723879163601738 0.0017238791636017383
vn 0.09901475429766754 0.9901475429766745 -0.09901475429766754
vn 0 -1 0
vn 0 0 -1
vn -0.9979198789221605 -0.035732781675964054 -0.053657092407981825
vn 0.0000309513250561458 0.9999996429440369 0.000844484348300245
vn -0.1046774709191433 -0.9945062227354561 0.000004735743895181522
vn -0.001524907623128847 0.016666647288750332 0.9998599389538984
vn -0.999996184036774 0 0.002762591517091974
vn -0.00013112894258716926 0.9999999913910512 -0.000004806026937566368
vn -0.0000052493438042665985 -0.9999999999737877 -0.000004986876614053268
vn -0.053450173493559724 0.01811866047606962 -0.9984061263313949
usemtl m_13f8b915-9cdd-ce74-19ae-063f0d957adb
f 13/25/9 11/26/9 12/27/9 40/28/9
f 9/29/10 22/30/10 12/31/10 11/32/10
f 23/33/11 10/34/11 13/35/11 40/36/11
usemtl m_606e62bb-952e-58ab-bd9f-e5b00ded185d
f 14/37/12 18/38/12 9/39/12 16/40/12
f 20/41/13 15/42/13 17/43/13 10/44/13
f 18/45/14 19/46/14 22/47/14 9/48/14
f 21/49/15 20/50/15 10/51/15 23/52/15
f 23/53/16 22/54/16 19/55/16 21/56/16
f 24/57/17 14/58/17 16/59/17 26/60/17
f 15/61/18 25/62/18 27/63/18 17/64/18
f 25/65/19 24/66/19 26/67/19 27/68/19
f 31/69/20 29/70/20 28/71/20 30/72/20
f 28/73/21 29/74/21 18/75/21 14/76/21
f 31/77/22 30/78/22 15/79/22 20/80/22
usemtl m_13f8b915-9cdd-ce74-19ae-063f0d957adb
f 30/81/23 28/82/23 32/83/23 33/84/23
f 32/85/24 28/86/24 14/87/24 24/88/24
f 30/89/25 33/90/25 25/91/25 15/92/25
f 33/93/26 32/94/26 24/95/26 25/96/26
f 35/97/27 34/98/27 29/99/27 31/100/27
f 29/101/28 34/102/28 19/103/28 18/104/28
f 35/105/29 31/106/29 20/107/29 21/108/29
f 21/109/30 19/110/30 34/111/30 35/112/30
f 38/113/31 36/114/31 37/115/31 39/116/31
f 26/117/32 16/118/32 37/119/32 36/120/32
f 17/121/33 27/122/33 38/123/33 39/124/33
f 27/125/34 26/126/34 36/127/34 38/128/34
usemtl m_606e62bb-952e-58ab-bd9f-e5b00ded185d
f 39/129/35 37/130/35 11/131/35 13/132/35
f 16/133/36 9/134/36 11/135/36 37/136/36
f 10/137/37 17/138/37 39/139/37 13/140/37
usemtl m_13f8b915-9cdd-ce74-19ae-063f0d957adb
f 40/141/38 12/142/38 22/143/38 23/144/38